<svg xmlns="http://www.w3.org/2000/svg" viewBox="0 0 256 256"><defs><style>.cls-1{fill:#1d384d;}</style></defs><title>exchange</title><g id="icons_without_caption" data-name="icons without caption"><g id="EXCHANGE"><path class="cls-1" d="M96.31,165.8c0,5.49-3.86,9.35-10.41,9.88v6.52h-3.6v-6.57a18.76,18.76,0,0,1-11-5.28L74.11,167a15.29,15.29,0,0,0,10.38,4.47c4,0,6.91-2,6.91-5.36,0-3.86-3.1-5.15-8.07-6.7-5.89-1.89-11.25-3.73-11.25-10.14,0-5.23,3.65-9.2,10.22-9.51v-6.81h3.6v7a22,22,0,0,1,9.17,3.91l-2.71,3.34A16.71,16.71,0,0,0,83.31,144c-3.76,0-6.38,1.76-6.38,4.91,0,3.36,3.26,4.6,7.75,6.07,6.62,2.1,11.64,3.86,11.64,10.77Z"/><path class="cls-1" d="M83.8,197.25a39.69,39.69,0,1,1,39.69-39.69A39.73,39.73,0,0,1,83.8,197.25Zm0-75.37a35.69,35.69,0,1,0,35.69,35.69A35.73,35.73,0,0,0,83.8,121.88Z"/><path class="cls-1" d="M172.2,138.12a39.69,39.69,0,1,1,39.69-39.69A39.73,39.73,0,0,1,172.2,138.12Zm0-75.37a35.69,35.69,0,1,0,35.69,35.69A35.73,35.73,0,0,0,172.2,62.75Z"/><path class="cls-1" d="M186.2,160.7l-13.87-13.87L158.19,161,161,163.8l9.18-9.18v9.47a24.67,24.67,0,0,1-24.64,24.64H122v4h23.55A28.68,28.68,0,0,0,174.2,164.1v-9.76l9.18,9.18Z"/><path class="cls-1" d="M110.45,64.14A28.68,28.68,0,0,0,81.8,92.78v9.75l-9.18-9.18L69.8,96.18l13.87,13.87L97.81,95.9,95,93.07l-9.18,9.18V92.78a24.67,24.67,0,0,1,24.64-24.64H134v-4Z"/><path class="cls-1" d="M184.35,111.54a16.61,16.61,0,0,1-26.93-10.65H179v-4.5H157.41A16.61,16.61,0,0,1,183,84.72L185.42,81a21.12,21.12,0,0,0-32.55,15.44H147.1v4.5h5.77A21.12,21.12,0,0,0,187.19,115Z"/></g></g></svg>