<?xml version="1.0" encoding="utf-8"?>
<!-- Generator: Adobe Illustrator 16.0.0, SVG Export Plug-In . SVG Version: 6.00 Build 0)  -->
<!DOCTYPE svg PUBLIC "-//W3C//DTD SVG 1.1//EN" "http://www.w3.org/Graphics/SVG/1.1/DTD/svg11.dtd">
<svg version="1.1" id="Layer_1" xmlns="http://www.w3.org/2000/svg" xmlns:xlink="http://www.w3.org/1999/xlink" x="0px" y="0px"
	 width="128px" height="128px" viewBox="0 0 128 128" enable-background="new 0 0 128 128" xml:space="preserve">
<g>
	<g>
		<g>
			<g>
				<g>
					<rect x="14.633" y="43.523" fill="#282D33" width="4" height="42.068"/>
				</g>
				<g>
					
						<rect x="20.509" y="104.095" transform="matrix(0.8621 0.5068 -0.5068 0.8621 59.383 -5.9953)" fill="#282D33" width="40.393" height="4.001"/>
				</g>
				<g>
					
						<rect x="85.694" y="85.212" transform="matrix(0.5069 0.862 -0.862 0.5069 134.4898 -23.3935)" fill="#282D33" width="3.999" height="41.299"/>
				</g>
				<g>
					<rect x="109.364" y="43.681" fill="#282D33" width="4" height="41.597"/>
				</g>
				<g>
					
						<rect x="67.122" y="20.097" transform="matrix(0.8621 0.5068 -0.5068 0.8621 23.2374 -41.1838)" fill="#282D33" width="40.307" height="3.999"/>
				</g>
				<g>
					
						<rect x="38.334" y="2.188" transform="matrix(0.5069 0.862 -0.862 0.5069 39.1302 -23.7595)" fill="#282D33" width="3.999" height="40.273"/>
				</g>
				<g>
					
						<rect x="21.597" y="43.854" transform="matrix(0.8621 0.5068 -0.5068 0.8621 27.7826 -10.3776)" fill="#282D33" width="22.72" height="4"/>
				</g>
				<g>
					
						<rect x="85.799" y="81.06" transform="matrix(0.8621 0.5067 -0.5067 0.8621 55.3563 -37.3163)" fill="#282D33" width="20.898" height="4.001"/>
				</g>
				<g>
					
						<rect x="94.272" y="34.913" transform="matrix(0.5068 0.862 -0.862 0.5068 86.3821 -60.7351)" fill="#282D33" width="4" height="20.431"/>
				</g>
				<g>
					
						<rect x="30.641" y="71.22" transform="matrix(0.5067 0.8621 -0.8621 0.5067 87.2564 12.5731)" fill="#282D33" width="4.001" height="22.632"/>
				</g>
				<g>
					<rect x="62" y="15.212" fill="#282D33" width="4" height="22.3"/>
				</g>
				<g>
					<rect x="62" y="89.862" fill="#282D33" width="4" height="22.303"/>
				</g>
			</g>
			<g>
				<path fill="#282D33" d="M17.4,45.335c-4.757,0-8.627-3.925-8.627-8.749c0-4.823,3.87-8.748,8.627-8.748s8.628,3.925,8.628,8.748
					C26.028,41.41,22.157,45.335,17.4,45.335z M17.4,31.838c-2.552,0-4.628,2.13-4.628,4.748c0,2.619,2.076,4.749,4.628,4.749
					s4.628-2.13,4.628-4.749C22.028,33.968,19.952,31.838,17.4,31.838z"/>
			</g>
			<g>
				<path fill="#282D33" d="M110.601,45.335c-4.758,0-8.629-3.925-8.629-8.749c0-4.823,3.871-8.748,8.629-8.748
					c4.757,0,8.627,3.925,8.627,8.748C119.228,41.41,115.357,45.335,110.601,45.335z M110.601,31.838
					c-2.553,0-4.629,2.13-4.629,4.748c0,2.619,2.076,4.749,4.629,4.749c2.552,0,4.627-2.13,4.627-4.749
					C115.228,33.968,113.152,31.838,110.601,31.838z"/>
			</g>
			<g>
				<path fill="#282D33" d="M63.792,17.5c-4.757,0-8.627-3.926-8.627-8.75S59.035,0,63.792,0s8.627,3.926,8.627,8.75
					S68.549,17.5,63.792,17.5z M63.792,4c-2.551,0-4.627,2.131-4.627,4.75s2.076,4.75,4.627,4.75c2.552,0,4.627-2.131,4.627-4.75
					S66.344,4,63.792,4z"/>
			</g>
			<g>
				<path fill="#282D33" d="M63.792,128c-4.757,0-8.627-3.924-8.627-8.749s3.87-8.75,8.627-8.75s8.627,3.925,8.627,8.75
					S68.549,128,63.792,128z M63.792,114.501c-2.551,0-4.627,2.131-4.627,4.75s2.076,4.75,4.627,4.75
					c2.552,0,4.627-2.131,4.627-4.75S66.344,114.501,63.792,114.501z"/>
			</g>
			<g>
				<g>
					<path fill="#282D33" d="M17.4,101.007c-4.757,0-8.627-3.925-8.627-8.749s3.87-8.748,8.627-8.748s8.628,3.924,8.628,8.748
						S22.157,101.007,17.4,101.007z M17.4,87.509c-2.552,0-4.628,2.131-4.628,4.749s2.076,4.749,4.628,4.749
						s4.628-2.131,4.628-4.749S19.952,87.509,17.4,87.509z"/>
				</g>
				<g>
					<path fill="#282D33" d="M110.601,101.007c-4.758,0-8.629-3.925-8.629-8.749s3.871-8.748,8.629-8.748
						c4.757,0,8.627,3.924,8.627,8.748S115.357,101.007,110.601,101.007z M110.601,87.509c-2.553,0-4.629,2.131-4.629,4.749
						s2.076,4.749,4.629,4.749c2.552,0,4.627-2.131,4.627-4.749S113.152,87.509,110.601,87.509z"/>
				</g>
			</g>
		</g>
	</g>
	<g>
		<g>
			<path fill="#282D33" d="M65.357,91.862c-15.149,0-27.474-12.531-27.474-27.937s12.325-27.938,27.474-27.938
				c15.15,0,27.475,12.532,27.475,27.938S80.508,91.862,65.357,91.862z M65.357,39.988c-12.943,0-23.474,10.738-23.474,23.938
				s10.531,23.937,23.474,23.937c12.944,0,23.475-10.737,23.475-23.937S78.302,39.988,65.357,39.988z"/>
		</g>
		<g>
			<g>
				<path fill="#282D33" d="M84.645,82.713h-4v-8.059c-0.001-1.766-1.496-3.901-3.076-4.394c-8.264-2.512-17.016-2.513-25.297,0.005
					c-1.563,0.487-3.058,2.624-3.061,4.393v7.104h-4v-7.107c0.007-3.52,2.646-7.202,5.884-8.212
					c9.054-2.751,18.61-2.751,27.649-0.005c3.257,1.014,5.897,4.697,5.9,8.215V82.713z"/>
			</g>
			<g>
				<path fill="#282D33" d="M64.93,68.072c-6.067,0-11.003-5.008-11.003-11.163s4.936-11.164,11.003-11.164
					c6.066,0,11.002,5.009,11.002,11.164S70.996,68.072,64.93,68.072z M64.93,49.745c-3.861,0-7.003,3.214-7.003,7.164
					c0,3.949,3.142,7.163,7.003,7.163s7.002-3.214,7.002-7.163C71.932,52.959,68.791,49.745,64.93,49.745z"/>
			</g>
			<g>
				<path fill="#282D33" d="M64.93,68.072c-6.067,0-11.003-5.008-11.003-11.163s4.936-11.164,11.003-11.164
					c6.066,0,11.002,5.009,11.002,11.164S70.996,68.072,64.93,68.072z M64.93,49.745c-3.861,0-7.003,3.214-7.003,7.164
					c0,3.949,3.142,7.163,7.003,7.163s7.002-3.214,7.002-7.163C71.932,52.959,68.791,49.745,64.93,49.745z"/>
			</g>
			<g>
				<g>
					<rect x="53.352" y="76.215" fill="#282D33" width="4" height="11.976"/>
				</g>
				<g>
					<rect x="72.506" y="76.215" fill="#282D33" width="4" height="11.976"/>
				</g>
			</g>
		</g>
	</g>
</g>
</svg>
