<?xml version="1.0" encoding="iso-8859-1"?>
<!-- Generator: Adobe Illustrator 23.0.5, SVG Export Plug-In . SVG Version: 6.00 Build 0)  -->
<svg version="1.1" xmlns="http://www.w3.org/2000/svg" xmlns:xlink="http://www.w3.org/1999/xlink" x="0px" y="0px"
	 viewBox="0 0 492 492" style="enable-background:new 0 0 492 492;" xml:space="preserve">
<g id="Master_Layer_2">
</g>
<g id="Layer_1">
	<g>
		<g>
			<g>
				<g>
					<g>
						<g>
							<path style="fill-rule:evenodd;clip-rule:evenodd;fill:#212121;" d="M241.626,329.96c-0.096,0-0.168,0-0.264,0
								c-3.192,0-5.76-2.592-5.76-5.76s2.592-5.76,5.76-5.76c0.072,0,0.144,0,0.24,0c11.568,0,21.744-1.752,29.424-5.064
								c6.024-2.592,10.488-6.144,12.528-9.96c1.032-1.944,1.92-4.824,0.12-7.512c-3.048-4.536-11.112-5.448-17.64-4.776
								c-16.08,1.632-29.424-3.96-40.152-8.448c-6.936-2.904-12.936-5.424-17.952-5.424h-0.024c-11.832,0-20.808,8.328-31.2,17.952
								c-10.344,9.6-22.08,20.472-38.928,24.576c-3.096,0.744-6.216-1.128-6.96-4.224c-0.744-3.096,1.128-6.216,4.224-6.96
								c13.92-3.408,24.048-12.768,33.816-21.84c11.16-10.344,22.68-21.024,39.048-21.024h0.024c7.32,0,14.64,3.072,22.392,6.312
								c10.008,4.2,21.36,8.952,34.536,7.608c12.96-1.32,23.304,2.28,28.368,9.84c3.816,5.712,3.984,12.768,0.456,19.344
								c-3.312,6.192-9.576,11.424-18.12,15.096C266.345,327.92,254.922,329.96,241.626,329.96z"/>
						</g>
						<g>
							<path style="fill-rule:evenodd;clip-rule:evenodd;fill:#212121;" d="M179.082,385.304c-1.632,0-3.24-0.672-4.368-2.016
								c-2.064-2.424-1.8-6.048,0.624-8.112c9.768-8.4,18.072-13.488,26.088-16.032c7.152-2.28,14.184-2.472,22.08-0.672
								c25.464,5.856,43.416,1.776,57.84-1.512c0.96-0.216,1.92-0.432,2.856-0.648c10.272-2.304,31.848-12.528,51.264-24.288
								c10.368-6.264,19.32-12.504,25.896-18c9.624-8.04,11.304-12.168,11.592-13.224c0.336-1.296,1.008-4.416-0.288-5.616
								c-1.344-1.248-6.36-2.424-16.752,1.056c-0.552,0.192-3.024,1.272-5.64,2.4c-18.696,8.16-68.352,29.856-97.968,30.816
								c-3.168,0.096-5.832-2.4-5.952-5.568c-0.096-3.168,2.4-5.832,5.568-5.952c27.408-0.888,77.328-22.68,93.72-29.856
								c3.984-1.752,5.64-2.448,6.552-2.76c16.272-5.496,24.384-2.232,28.32,1.44c5.616,5.256,4.632,12.912,3.528,16.992
								c-1.44,5.448-6.456,11.688-15.336,19.104c-7.032,5.88-16.464,12.456-27.336,19.008c-20.688,12.528-43.2,23.088-54.72,25.68
								c-0.912,0.216-1.848,0.432-2.808,0.648c-9.792,2.232-21.096,4.8-35.088,4.8c-8.28,0-17.496-0.888-27.888-3.288
								c-10.488-2.4-20.52-0.864-38.088,14.208C181.746,384.848,180.402,385.304,179.082,385.304z"/>
						</g>
					</g>
					<g>
						<path style="fill-rule:evenodd;clip-rule:evenodd;fill:#212121;" d="M141.186,431.072c-1.872,0-3.72-0.912-4.824-2.616
							c-1.728-2.664-0.984-6.24,1.68-7.968l42.624-27.744l-55.68-85.584l-42.624,27.744c-2.664,1.728-6.24,0.984-7.968-1.68
							c-1.728-2.664-0.984-6.24,1.68-7.968l47.448-30.888c1.272-0.84,2.832-1.128,4.344-0.816c1.488,0.312,2.808,1.224,3.624,2.496
							l61.968,95.232c1.728,2.664,0.984,6.24-1.68,7.968l-47.448,30.888C143.37,430.76,142.266,431.072,141.186,431.072z"/>
					</g>
				</g>
				<g>
					<g>
						<path style="fill-rule:evenodd;clip-rule:evenodd;fill:#212121;" d="M314.129,214.112c-1.464,0-2.952-0.552-4.08-1.68
							l-37.128-37.128c-5.64-5.64-8.76-13.152-8.76-21.144s3.12-15.48,8.76-21.144l0,0l0,0c5.64-5.64,13.152-8.76,21.144-8.76
							c7.488,0,14.544,2.736,20.064,7.728c5.496-4.992,12.576-7.728,20.064-7.728c7.992,0,15.48,3.12,21.144,8.76
							c5.64,5.64,8.76,13.152,8.76,21.144s-3.12,15.48-8.76,21.144l-37.128,37.128C317.081,213.56,315.617,214.112,314.129,214.112
							L314.129,214.112z M294.065,135.8c-4.896,0-9.528,1.92-12.984,5.376l0,0c-3.48,3.48-5.376,8.088-5.376,12.984
							s1.92,9.528,5.376,12.984l33.048,33.048l33.048-33.048c3.48-3.48,5.376-8.088,5.376-12.984s-1.92-9.528-5.376-12.984
							c-3.48-3.48-8.088-5.376-12.984-5.376s-9.528,1.92-12.984,5.376l-3,3c-2.256,2.256-5.904,2.256-8.136,0l-3-3
							C303.594,137.72,298.986,135.8,294.065,135.8L294.065,135.8z M277.001,137.12L277.001,137.12L277.001,137.12z"/>
					</g>
				</g>
				<g>
					<g>
						<g>
							<path style="fill-rule:evenodd;clip-rule:evenodd;fill:#212121;" d="M220.002,149.192c-0.36,0-0.744-0.024-1.128-0.12
								c-3.12-0.624-5.16-3.648-4.536-6.768c4.368-22.224,16.416-42.456,33.912-57.024c8.712-7.248,18.48-12.888,29.064-16.8
								c10.944-4.032,22.488-6.072,34.248-6.072c11.76,0,23.304,2.04,34.248,6.072c10.584,3.888,20.376,9.552,29.064,16.8
								c17.496,14.544,29.544,34.8,33.912,57.024c0.624,3.12-1.416,6.144-4.536,6.768c-3.12,0.624-6.144-1.416-6.768-4.536
								c-3.864-19.632-14.496-37.512-29.976-50.376c-7.704-6.408-16.344-11.4-25.68-14.832c-9.672-3.552-19.848-5.376-30.264-5.376
								c-10.416,0-20.592,1.8-30.264,5.376c-9.36,3.432-18,8.424-25.68,14.832c-15.48,12.864-26.112,30.768-29.976,50.376
								C225.09,147.296,222.69,149.192,220.002,149.192z"/>
						</g>
						<g>
							<path style="fill-rule:evenodd;clip-rule:evenodd;fill:#212121;" d="M311.585,260.648c-11.784,0-23.304-2.04-34.248-6.072
								c-10.584-3.888-20.376-9.552-29.064-16.8c-17.52-14.568-29.568-34.799-33.936-57.023c-0.624-3.12,1.416-6.144,4.536-6.768
								c3.12-0.624,6.144,1.416,6.768,4.536c3.864,19.632,14.496,37.512,29.976,50.376c7.704,6.408,16.344,11.4,25.68,14.832
								c9.672,3.552,19.848,5.376,30.264,5.376c10.416,0,20.592-1.8,30.264-5.376c9.36-3.432,18-8.424,25.68-14.832
								c15.48-12.864,26.112-30.768,29.976-50.376c0.624-3.12,3.648-5.16,6.768-4.536c3.12,0.624,5.16,3.648,4.536,6.768
								c-4.368,22.224-16.416,42.456-33.912,57.024c-8.712,7.248-18.48,12.888-29.064,16.8
								C334.865,258.584,323.345,260.648,311.585,260.648z"/>
						</g>
					</g>
					<g>
						<path style="fill-rule:evenodd;clip-rule:evenodd;fill:#212121;" d="M220.05,169.448c-8.76,0-15.888-7.128-15.888-15.888
							c0-8.76,7.128-15.888,15.888-15.888c8.76,0,15.888,7.128,15.888,15.888C235.938,162.32,228.81,169.448,220.05,169.448
							L220.05,169.448z M220.05,149.192c-2.4,0-4.368,1.968-4.368,4.368c0,2.4,1.968,4.368,4.368,4.368
							c2.4,0,4.368-1.968,4.368-4.368C224.418,151.16,222.45,149.192,220.05,149.192z"/>
					</g>
					<g>
						<path style="fill-rule:evenodd;clip-rule:evenodd;fill:#212121;" d="M403.169,185.096c-8.76,0-15.888-7.128-15.888-15.888
							s7.128-15.888,15.888-15.888c8.76,0,15.888,7.128,15.888,15.888S411.93,185.096,403.169,185.096L403.169,185.096z
							 M403.169,164.84c-2.4,0-4.368,1.968-4.368,4.368c0,2.4,1.968,4.368,4.368,4.368c2.4,0,4.368-1.968,4.368-4.368
							C407.537,166.808,405.569,164.84,403.169,164.84z"/>
					</g>
				</g>
			</g>
		</g>
	</g>
</g>
</svg>
