<?xml version="1.0" encoding="utf-8"?>
<!-- Generator: Adobe Illustrator 16.0.0, SVG Export Plug-In . SVG Version: 6.00 Build 0)  -->
<!DOCTYPE svg PUBLIC "-//W3C//DTD SVG 1.1//EN" "http://www.w3.org/Graphics/SVG/1.1/DTD/svg11.dtd">
<svg version="1.1" id="Layer_1" xmlns="http://www.w3.org/2000/svg" xmlns:xlink="http://www.w3.org/1999/xlink" x="0px" y="0px"
	 width="128px" height="128px" viewBox="0 0 128 128" enable-background="new 0 0 128 128" xml:space="preserve">
<g>
	<g>
		
			<rect x="88.055" y="111.272" transform="matrix(0.4962 0.8682 -0.8682 0.4962 150.6731 -33.1184)" fill="#282D33" width="31.638" height="4.002"/>
	</g>
	<g>
		
			<rect x="22.042" y="97.752" transform="matrix(0.8682 0.4961 -0.4961 0.8682 59.4358 3.0137)" fill="#282D33" width="4.004" height="31.32"/>
	</g>
	<g>
		<rect x="61.997" y="99.408" fill="#282D33" width="4.004" height="27.704"/>
	</g>
	<g>
		<polygon fill="#282D33" points="127.775,102.624 0.225,102.624 0.225,0.582 39.097,0.582 39.097,4.585 4.228,4.585 4.228,98.62 
			123.771,98.62 123.771,4.585 88.27,4.585 88.27,0.582 127.775,0.582 		"/>
	</g>
	<g>
		<path fill="#282D33" d="M117.942,92.689H10.058V10.514h107.884V92.689z M14.062,88.686h99.878V14.518H14.062V88.686z"/>
	</g>
	<g>
		<path fill="#282D33" d="M82.394,13.937H45.607V0h36.787V13.937z M49.61,9.934H78.39v-5.93H49.61V9.934z"/>
	</g>
	<g>
		<path fill="#282D33" d="M40.463,54.194c-7.107,0-12.889-5.831-12.889-12.999c0-7.168,5.782-13,12.889-13
			c7.108,0,12.89,5.832,12.89,13C53.353,48.363,47.571,54.194,40.463,54.194z M40.463,32.199c-4.9,0-8.886,4.035-8.886,8.996
			c0,4.96,3.986,8.996,8.886,8.996c4.9,0,8.886-4.035,8.886-8.996C49.349,36.234,45.363,32.199,40.463,32.199z"/>
	</g>
	<g>
		<path fill="#282D33" d="M105.201,72.931H70.558l17.321-30.303L105.201,72.931z M77.456,68.927h20.845L87.879,50.693L77.456,68.927
			z"/>
	</g>
	<g>
		<path fill="#282D33" d="M80.894,46.578c-2.835,0-4.339-1.46-5.438-2.526c-0.999-0.968-1.489-1.396-2.651-1.396
			c-1.161,0-1.651,0.428-2.648,1.396c-1.1,1.066-2.605,2.527-5.44,2.527c-2.832,0-4.337-1.461-5.436-2.527
			c-0.997-0.968-1.487-1.396-2.647-1.396c-1.161,0-1.651,0.428-2.649,1.396c-1.099,1.066-2.604,2.526-5.437,2.526
			c-2.832,0-4.337-1.461-5.436-2.526c-0.998-0.968-1.488-1.396-2.649-1.396v-4.003c2.833,0,4.338,1.46,5.438,2.527
			c0.997,0.968,1.487,1.396,2.647,1.396c1.161,0,1.651-0.428,2.648-1.396c1.099-1.067,2.604-2.527,5.438-2.527
			c2.833,0,4.337,1.46,5.436,2.527c0.997,0.968,1.487,1.396,2.646,1.396c1.163,0,1.654-0.428,2.652-1.396
			c1.1-1.066,2.604-2.526,5.437-2.526c2.834,0,4.339,1.459,5.438,2.526c0.998,0.969,1.488,1.396,2.651,1.396V46.578z"/>
	</g>
	<g>
		<rect x="34.531" y="65.124" fill="#282D33" width="6.674" height="4.003"/>
	</g>
	<g>
		<rect x="49.037" y="60.032" fill="#282D33" width="4.003" height="20.222"/>
	</g>
</g>
</svg>
