<svg xmlns="http://www.w3.org/2000/svg" viewBox="0 0 256 256"><defs><style>.cls-1{fill:#1d384d;}</style></defs><title>blockchain</title><g id="icons_without_caption" data-name="icons without caption"><g id="BLOCKCHAIN"><path class="cls-1" d="M113.21,122.3,88.88,111.23l-3.75-1.71-12.92-5.88-41,18.67-1.88.86v54.29l41,18.67,1.87.85,1.87-.85,41-18.67v-54.3Zm-41-14.54,12.92,5.88,3.75,1.71,19.8,9L72.21,141l-36.48-16.6ZM70.34,192,33.08,175V127.28l37.26,17Zm41-17L74.09,192V144.24l37.25-17Z"/><path class="cls-1" d="M224.79,122.3l-41-18.67-12.92,5.88-3.75,1.71L142.8,122.3l-1.87.85v54.3l41,18.67,1.87.85,1.87-.85,41-18.67v-54.3Zm-57.66-7,3.75-1.71,12.92-5.88,36.47,16.6L183.79,141l-36.47-16.6ZM181.92,192l-37.25-17V127.28l37.25,17Zm41-17-37.25,17V144.24l37.25-17Z"/><path class="cls-1" d="M169,77.69,128,59,87,77.69l-1.87.85v51.1h3.75v-47l37.25,17V147.4l-11-5-3.75-1.71L99,135.07l-1.56,3.41,13.85,6.31,3.75,1.71,11,5,1.87.85,1.87-.85,11-5,3.75-1.71,13-5.93-1.55-3.41-11.47,5.22-3.75,1.71-11,5V99.63l37.25-17v47h3.75V78.54ZM128,96.37,91.53,79.75,128,63.15l36.47,16.6Z"/></g></g></svg>