<svg xmlns="http://www.w3.org/2000/svg" viewBox="0 0 512 512"><title>Game_Boy</title><g id="Game_Boy" data-name="Game Boy"><g id="Game_Boy-2" data-name="Game Boy"><path d="M342.7839,80.2675H167.7873A22.7108,22.7108,0,0,0,145.1047,102.95v306.095a22.718,22.718,0,0,0,22.6826,22.6874H342.7839a22.717,22.717,0,0,0,22.6779-22.6874V102.95A22.7129,22.7129,0,0,0,342.7839,80.2675Zm2.5674,328.7776a2.5785,2.5785,0,0,1-2.5674,2.5721H167.7873a2.5826,2.5826,0,0,1-2.5721-2.5721V102.95a2.58,2.58,0,0,1,2.5721-2.5769H342.7839a2.5764,2.5764,0,0,1,2.5674,2.5769Z"/><path d="M182.2442,289.6027H328.3261V114.0085H182.2442Zm20.1115-155.4836H308.21v135.373H202.3557Z"/><polygon points="225.122 320.514 205.006 320.514 205.006 336.912 187.239 336.912 187.239 357.022 205.006 357.022 205.006 373.425 225.122 373.425 225.122 357.022 242.886 357.022 242.886 336.912 225.122 336.912 225.122 320.514"/><rect x="290.612" y="321.1173" width="31.0004" height="20.1106"/><rect x="290.612" y="352.1177" width="31.0004" height="20.1106"/></g></g></svg>